<?xml version="1.0" standalone="no"?>
<!DOCTYPE svg PUBLIC "-//W3C//DTD SVG 1.1//EN" "http://www.w3.org/Graphics/SVG/1.1/DTD/svg11.dtd" >
<svg xmlns="http://www.w3.org/2000/svg">
<metadata>Generated by IcoMoon</metadata>
<defs>
<font id="icomoon" horiz-adv-x="1024">
<font-face units-per-em="1024" ascent="960" descent="-64" />
<missing-glyph horiz-adv-x="1024" />
<glyph unicode="&#x20;" horiz-adv-x="512" d="" />
<glyph unicode="&#xe900;" glyph-name="briefcase" d="M972.629 729.6h-33.963v51.2h-170.667v-51.2h-68.267v98.884c0 30.174-24.542 54.716-54.716 54.716h-266.035c-30.174 0-54.716-24.542-54.716-54.716v-98.884h-68.267v51.2h-170.667v-51.2h-33.963c-28.314 0-51.371-23.057-51.371-51.371v-614.059c0-28.314 23.057-51.371 51.371-51.371h921.259c28.314 0 51.371 23.057 51.371 51.371v614.059c0 28.314-23.057 51.371-51.371 51.371zM802.133 746.667h102.4v-17.067h-102.4v17.067zM358.4 828.484c0 11.349 9.233 20.582 20.582 20.582h266.035c11.349 0 20.582-9.233 20.582-20.582v-98.884h-307.2v98.884zM324.267 695.467h529.067v-648.533h-682.667v648.533h153.6zM119.467 746.667h102.4v-17.067h-102.4v17.067zM34.133 64.171v614.059c0 9.506 7.731 17.237 17.237 17.237h85.163v-648.533h-85.163c-9.506 0-17.237 7.731-17.237 17.237zM989.867 64.171c0-9.506-7.731-17.237-17.237-17.237h-85.163v648.533h85.163c9.506 0 17.237-7.731 17.237-17.237v-614.059z" />
<glyph unicode="&#xe901;" d="M853.604 612.716v0c-92.501 0-167.151-73.027-167.151-163.905s74.65-163.905 167.151-165.528c0 0 0 0 1.623 0 92.501 0 168.773 73.027 168.773 163.905-1.623 92.501-76.273 165.528-170.396 165.528zM853.604 333.591c-66.536 0-120.089 53.553-120.089 118.466s53.553 118.466 120.089 118.466 120.089-53.553 120.089-118.466c0-66.536-53.553-118.466-120.089-118.466z" />
<glyph unicode="&#xe902;" d="M676.716 612.716c-47.062-32.456-77.895-94.124-77.895-159.036 0-69.781 34.079-133.071 86.010-165.528h-53.553c-51.93 32.456-84.387 95.746-84.387 165.528 0 64.913 30.834 126.58 77.895 159.036h51.93z" />
<glyph unicode="&#xe903;" d="M540.399 612.716c-47.062-32.456-76.273-94.124-76.273-159.036 0-69.781 34.079-133.071 86.010-165.528h-55.176c-51.93 32.456-86.010 95.746-86.010 165.528 0 64.913 30.834 126.58 77.895 159.036h53.553z" />
<glyph unicode="&#xe904;" d="M404.082 612.716c-47.062-32.456-77.895-94.124-77.895-159.036 0-69.781 34.079-133.071 86.010-165.528h-53.553c-51.93 32.456-84.387 95.746-84.387 165.528 0 64.913 30.834 126.58 77.895 159.036h51.93z" />
<glyph unicode="&#xe905;" d="M267.765 612.716c-47.062-32.456-76.273-94.124-76.273-159.036 0-69.781 34.079-133.071 86.010-165.528h-53.553c-51.93 32.456-84.387 95.746-84.387 165.528 0 64.913 29.211 126.58 77.895 159.036h50.307z" />
<glyph unicode="&#xe906;" d="M131.448 612.716c-47.062-32.456-76.273-94.124-76.273-159.036 0-69.781 34.079-133.071 86.010-165.528h-56.799c-51.93 32.456-84.387 95.746-84.387 165.528 0 64.913 30.834 126.58 77.895 159.036h53.553z" />
<glyph unicode="&#xe907;" glyph-name="cloud" d="M869.99 512.956c-9.028 153.6-135.646 276.378-288.273 276.378-92.672 0-182.409-45.449-238.012-119.603-1.28 0.666-2.628 1.126-3.925 1.741-3.379 1.638-6.81 3.191-10.308 4.591-1.946 0.768-3.891 1.468-5.854 2.15-3.465 1.212-6.98 2.287-10.564 3.26-1.963 0.529-3.908 1.075-5.888 1.519-3.84 0.87-7.765 1.536-11.725 2.133-1.724 0.256-3.413 0.597-5.154 0.785-5.666 0.631-11.401 1.024-17.22 1.024-84.702 0-153.6-68.898-153.6-153.6 0-2.167 0.137-4.301 0.273-6.434v-0.068c-70.98-38.707-119.74-119.774-119.74-200.926 0-120.883 98.338-219.238 219.221-219.238h418.27c1.775 0 3.533 0.102 5.308 0.239l1.058 0.137 2.287-0.137c1.741-0.137 3.482-0.239 5.274-0.239h167.305c113.186 0 205.278 92.092 205.278 205.278 0 93.679-65.314 177.698-154.010 201.011zM818.722 140.8h-167.305c-1.007 0-1.98 0.085-2.97 0.154l-4.625 0.188-3.379-0.188c-0.973-0.068-1.963-0.154-2.953-0.154h-418.27c-102.059 0-185.088 83.029-185.088 185.105 0 70.895 46.165 144.486 109.79 174.985l9.677 4.625v10.752c0 2.167 0.137 4.369 0.256 6.588l0.154 2.731-0.205 3.584c-0.102 1.382-0.205 2.765-0.205 4.164 0 65.86 53.606 119.467 119.467 119.467 5.274 0 10.479-0.461 15.65-1.143 1.331-0.171 2.662-0.393 3.977-0.614 4.557-0.751 9.045-1.741 13.466-3.021 0.597-0.171 1.212-0.29 1.809-0.461 4.864-1.485 9.609-3.362 14.251-5.478 1.212-0.546 2.389-1.143 3.584-1.724 4.096-2.031 8.107-4.25 11.981-6.758 32.887-21.299 54.75-58.249 54.75-100.267 0-9.438 7.629-17.067 17.067-17.067s17.067 7.629 17.067 17.067c0 47.002-21.265 89.071-54.613 117.265 48.93 64 129.502 104.602 209.664 104.602 132.181 0 241.954-104.704 253.406-237.022-17.442 1.229-43.554 1.86-69.683-2.116-9.318-1.417-15.718-10.121-14.302-19.439 1.28-8.448 8.55-14.507 16.845-14.507 0.853 0 1.724 0.068 2.577 0.205 38.007 5.751 77.619 0.358 79.94 0.034 79.462-15.104 139.366-88.303 139.366-170.411 0-94.362-76.783-171.145-171.145-171.145z" />
<glyph unicode="&#xe908;" glyph-name="customer-service" d="M858.774 781.011c0 0.019-0.019 0.038-0.038 0.056-9.713 13.631-19.913 26.944-31.2 39.469-70.388 78.075-169.051 126.245-273.152 137.288-47.963 5.081-96.376 1.069-142.97-10.331-2.888 0.675-5.85 0.094-8.625-1.988-52.913-14.1-103.201-38.1-147.076-71.119-83.251-62.663-141.62-154.876-162.226-257.064-21.225-105.151-1.2-216.151 54.675-307.558 21.788-35.606 49.032-67.444 80.044-94.932 0-8.7 0-17.419 0-26.119 0-78.769 0-157.501 0-236.326 0-8.963 7.463-16.406 16.406-16.406 111.413 0 222.845 0 334.24 0 65.907 0 131.738 0 197.607 0 4.444 0 7.744 1.688 10.331 3.994 0.394 0.319 0.844 0.544 1.2 0.919 0.319 0.338 0.506 0.694 0.788 1.050 2.363 2.625 4.050 5.944 4.050 10.5 0 86.476 0 173.045 0 259.558 49.2 43.407 88.369 98.044 113.963 158.907 21.525 51.15 31.819 106.876 32.044 162.263-0.338 89.363-28.819 175.67-80.063 247.839zM737.442 346.009c-29.569 20.888-59.138 41.794-88.744 62.663-1.538 1.088-3.338 1.688-5.231 2.006-5.231 0.919-11.25-0.863-14.625-4.594-17.7-19.481-35.475-38.944-53.194-58.425-19.8-21.75-39.563-43.482-59.382-65.232-19.031 20.981-38.044 41.944-57.057 62.925-18.3 20.138-36.6 40.313-54.9 60.525-2.925 3.225-7.631 4.744-12.188 4.631-2.756-0.075-5.475-0.581-7.688-2.063-29.194-19.669-58.388-39.338-87.582-58.988-3.188-0.956-6.375-1.913-9.563-2.869-12.694 51.075-18.9 103.819-17.25 157.651 0.188 6.263 0.75 12.525 1.144 18.788 35.119 0 70.219 0 105.319 0 10.181-30.056 25.369-59.307 45.544-82.388 26.606-30.469 61.913-50.1 106.369-45.882 35.306 3.375 63.338 20.175 85.219 44.138 21.019 23.044 36.263 52.725 46.425 84.094 29.569 0 59.119 0 88.688 0 4.031-59.588 0.188-119.044-11.306-176.982zM309.002 707.473c19.219-5.681 38.7-10.65 58.332-15.019-7.050-32.813-8.85-66.938-5.888-99.788 1.181-13.2 3.6-27.263 7.013-41.55-31.65 0-63.319 0-94.988 0 5.719 53.194 18.075 105.676 35.531 156.357zM552.772 806.23c64.425-31.369 85.669-118.032 86.063-183.189-0.319-54.094-13.669-112.201-49.65-154.145-26.475-30.844-66.938-47.85-105.619-29.025-44.55 21.675-67.857 72.657-78.844 118.332-13.575 56.438-9.3 120.376 14.363 173.626 22.481 50.569 74.438 103.257 133.688 74.4zM670.092 686.83c15.731 3.394 31.238 7.481 46.575 12.15 14.156-48.338 24.131-97.894 29.4-147.863-26.1 0-52.144 0-78.244 0 5.663 24.788 8.344 49.575 8.475 71.907v0 0c-0.094 21.225-2.063 42.732-6.206 63.807zM743.217 707.68c34.613 12.375 67.969 28.163 99.676 47.175 40.2-60.207 63.713-130.857 67.163-203.72-45.188 0-90.394 0-135.601 0-5.344 52.988-16.125 105.413-31.238 156.545zM786.23 822.58c14.644-13.819 27.731-28.969 40.013-44.757-29.513-17.4-60.019-31.838-91.444-42.975-8.044 24.488-17.025 48.657-26.944 72.375-13.313 31.894-27.863 64.013-44.925 94.463 45.263-18.6 87.301-45.169 123.301-79.107zM621.154 916.425c22.181-34.275 40.181-71.813 56.363-109.107 11.438-26.4 21.581-53.438 30.6-80.888-14.869-4.425-29.85-8.344-44.963-11.531-7.819 26.25-19.238 51.338-35.344 73.575-23.606 32.644-58.369 58.463-98.438 62.569-0.938 26.719-1.856 53.438-2.775 80.138 32.119-1.144 63.863-5.963 94.557-14.756zM414.284 915.487c1.106 1.538 2.213 3.075 3.319 4.594 26.4 6.469 53.438 10.406 80.813 11.4 0.938-27.113 1.875-54.225 2.813-81.338-46.782-7.294-83.044-42.15-105.882-82.276-8.644-15.169-15.375-31.35-20.738-48.038-18.788 4.106-37.444 8.831-55.913 14.194 6.319 16.5 12.994 32.869 20.288 48.882 16.256 35.7 34.969 70.332 55.913 103.519 6.225 9.844 12.675 19.556 19.388 29.063zM224.664 809.624c41.907 43.819 93.582 76.519 149.813 97.163-13.95-21.525-26.719-43.894-38.588-66.469-16.65-31.669-31.406-64.444-44.138-97.951-19.2 6.244-38.25 12.938-56.888 20.4-11.925 4.781-24.356 10.238-36.656 16.125 8.269 10.65 17.081 20.925 26.456 30.731zM181.707 755.68c32.1-16.013 66.132-28.894 100.369-39.863-14.625-42.825-25.725-86.851-32.588-131.57-1.688-11.025-3.019-22.069-4.144-33.131-9.3 0-18.581 0-27.881 0-34.444 0-68.925 0-103.388 0 3.225 73.2 26.981 144.057 67.632 204.564zM113.532 522.991c43.163 0 86.326 0 129.507 0-3.038-50.363-0.356-100.857 8.719-150.751 2.138-11.756 4.763-23.4 7.669-34.988-7.481-2.681-15-5.194-22.425-8.175-17.588-6.994-35.456-14.513-52.238-23.663-44.1 63.619-69 139.613-71.232 217.576zM228.189 293.752c0-5.944 0-11.925 0-17.869 0-7.463 0-14.944 0-22.406-9.244 9.338-17.963 19.088-26.175 29.269 8.719 4.725 17.569 9.056 26.55 12.956-0.075-0.713-0.375-1.219-0.375-1.95zM759.998-31.15c-77.663 0-155.27 0-232.933 0 6.619 68.232 21.544 228.583 29.475 265.164 0.394 1.575-1.069 4.238-2.85 3.525-12.638-4.725-37.913-13.763-37.913-13.763s-28.106 11.063-36.056 14.063c-0.656 0.619-1.556 0.713-2.419 0.281-0.263-0.113-0.994-0.863-1.125-1.144-0.075-0.244-0.094-0.394-0.131-0.638-0.056-0.3-0.225-0.506-0.169-0.844 7.238-36.563 20.925-198.114 27-266.645-20.25 0-40.481 0-60.713 0-60.394 0-120.788 0-181.201 0 0 105.657 0 211.314 0 316.933 43.032 28.988 86.044 57.957 129.076 86.963 38.175-42.113 76.388-84.169 114.563-126.282 5.813-6.431 17.4-6.394 23.194 0 38.306 42.113 76.65 84.207 114.976 126.32 39.075-27.6 78.15-55.125 117.244-82.726-0.019-107.044-0.019-214.164-0.019-321.208zM794.986 252.296c-0.694-0.694-1.481-1.313-2.175-1.988 0 12.9 0 25.8 0 38.681 0 3.788-0.169 7.144-0.638 10.331 10.988-4.031 21.9-8.231 32.7-12.675-9.338-11.925-19.163-23.494-29.888-34.35zM841.805 309.765c-25.388 10.463-51.244 19.8-77.494 28.031 11.869 58.575 16.313 118.726 12.9 179.157-0.113 2.006-0.375 4.031-0.469 6.038 11.55 0 23.081 0 34.669 0 32.925 0 65.869 0 98.813 0-2.269-76.575-26.081-150.432-68.419-213.226z" />
<glyph unicode="&#xe909;" glyph-name="draw" d="M697.69 163.758c-6.266 6.828-16.88 7.28-23.708 1.014-16.064-14.746-32.96-28.962-50.224-42.248-7.342-5.652-8.716-16.186-3.062-23.532 3.306-4.296 8.278-6.546 13.31-6.546 3.57 0 7.17 1.136 10.22 3.484 18.030 13.876 35.678 28.72 52.452 44.122 6.826 6.264 7.28 16.878 1.012 23.706zM786.082 264.584c-7.352 5.642-17.886 4.258-23.53-3.092-13.276-17.292-27.47-34.21-42.186-50.278-6.26-6.834-5.794-17.448 1.040-23.708 3.222-2.948 7.28-4.406 11.33-4.406 4.542 0 9.070 1.832 12.376 5.446 15.372 16.784 30.196 34.45 44.060 52.51 5.646 7.35 4.26 17.886-3.090 23.528zM593.24 79.7c-4.992 7.808-15.368 10.088-23.176 5.096-18.364-11.746-37.464-22.818-56.766-32.91-8.21-4.294-11.388-14.432-7.094-22.646 2.998-5.73 8.838-9.008 14.882-9.008 2.62 0 5.28 0.616 7.764 1.912 20.162 10.542 40.114 22.108 59.296 34.378 7.806 4.996 10.088 15.372 5.094 23.178zM475.816 15.016c-3.558 8.556-13.376 12.604-21.934 9.050-20.13-8.372-40.866-15.942-61.626-22.51-8.838-2.794-13.734-12.22-10.942-21.058 2.264-7.152 8.87-11.726 15.994-11.726 1.676 0 3.38 0.252 5.062 0.786 21.694 6.86 43.362 14.772 64.396 23.52 8.556 3.558 12.61 13.38 9.050 21.938zM348.91-28.204c-2.006 9.046-10.972 14.75-20.016 12.744-21.242-4.714-42.982-8.55-64.614-11.398-9.186-1.21-15.654-9.64-14.444-18.826 1.112-8.444 8.322-14.59 16.614-14.59 0.73 0 1.47 0.046 2.212 0.146 22.598 2.976 45.308 6.982 67.502 11.908 9.048 2.006 14.756 10.968 12.746 20.016zM930.302 635.67c-9.19 1.194-17.61-5.28-18.808-14.468-2.822-21.642-6.626-43.386-11.316-64.628-1.998-9.050 3.72-18.004 12.77-20.002 1.22-0.268 2.434-0.398 3.63-0.398 7.7 0 14.642 5.336 16.37 13.166 4.898 22.196 8.876 44.914 11.822 67.52 1.198 9.192-5.28 17.614-14.468 18.81zM855.696 379.184c-8.214 4.284-18.348 1.094-22.634-7.124-10.058-19.304-21.11-38.42-32.844-56.82-4.982-7.812-2.684-18.186 5.128-23.17 2.794-1.784 5.92-2.634 9.006-2.634 5.542 0 10.962 2.742 14.164 7.76 12.254 19.218 23.796 39.188 34.306 59.352 4.284 8.22 1.092 18.352-7.126 22.636zM904.288 504.15c-8.848 2.782-18.262-2.128-21.044-10.968-6.54-20.78-14.086-41.526-22.428-61.658-3.548-8.562 0.516-18.376 9.078-21.926 2.1-0.87 4.276-1.282 6.416-1.282 6.582 0 12.83 3.9 15.508 10.36 8.716 21.040 16.604 42.718 23.44 64.434 2.778 8.836-2.13 18.258-10.97 21.040zM973.234 724.506l-107.284 71.52c-0.024 0.016-0.050 0.034-0.074 0.050l-0.032 0.020c-0.056 0.036-0.114 0.064-0.168 0.1-0.408 0.264-0.822 0.516-1.25 0.744-0.158 0.084-0.322 0.152-0.484 0.232-0.332 0.164-0.662 0.326-1.004 0.47-0.23 0.094-0.464 0.17-0.696 0.256-0.28 0.1-0.558 0.208-0.844 0.296-0.294 0.090-0.588 0.154-0.882 0.226-0.234 0.058-0.466 0.124-0.704 0.17-0.362 0.072-0.724 0.118-1.090 0.166-0.182 0.022-0.358 0.058-0.542 0.076-0.464 0.044-0.926 0.062-1.39 0.070-0.082 0.004-0.168 0.016-0.254 0.016h-0.052c-0.020 0-0.042 0-0.062 0h-580.524c-13.032 14.688-28.988 26.212-46.91 33.91v110.392c0 9.266-7.51 16.78-16.78 16.78h-71.594c-9.27 0-16.78-7.512-16.78-16.78v-110.386c-48.638-20.832-80.542-68.518-80.542-122.288s31.904-101.46 80.542-122.292v-522.040c0-9.266 7.51-16.78 16.78-16.78h19.41l-0.394-96.584c-0.038-9.266 7.444-16.81 16.712-16.848 0.024 0 0.046 0 0.070 0 9.234 0 16.74 7.468 16.778 16.71l0.394 96.724h18.622c9.27 0 16.78 7.512 16.78 16.78v522.046c17.922 7.698 33.878 19.222 46.91 33.91h580.622c0.012 0 0.024-0.002 0.036-0.002 0.046 0 0.092 0.010 0.138 0.010 0.672 0.006 1.328 0.060 1.978 0.14 0.21 0.026 0.416 0.060 0.624 0.096 0.602 0.098 1.192 0.228 1.77 0.39 0.114 0.032 0.228 0.054 0.342 0.088 0.704 0.214 1.384 0.478 2.044 0.778 0.138 0.062 0.276 0.132 0.414 0.2 0.668 0.326 1.322 0.684 1.938 1.092 0.014 0.010 0.030 0.016 0.042 0.024l0.032 0.020c0.024 0.016 0.050 0.034 0.074 0.050l107.284 71.52c4.67 3.112 7.472 8.35 7.472 13.96 0 5.612-2.802 10.858-7.472 13.968zM157.394 926.442h38.034v-84.184c-12.6 1.804-25.434 1.804-38.034 0v84.184zM195.428 82.992h-18.488c-0.022 0-0.044 0-0.068 0h-19.48v495.818c6.282-0.906 12.632-1.382 19.016-1.382 6.386 0 12.732 0.478 19.016 1.382v-495.818zM254.862 649.288c-0.002-0.002-0.004-0.004-0.006-0.008-12.31-15.73-28.778-27.278-47.634-33.41-0.008-0.002-0.016-0.006-0.022-0.010-0.046-0.016-0.094-0.034-0.14-0.050-0.004-0.002-0.006-0.002-0.008-0.002-19.808-6.4-41.464-6.4-61.272 0-41.226 13.32-68.924 51.392-68.924 94.734s27.696 81.414 68.922 94.738c19.808 6.4 41.464 6.4 61.272 0 0.002 0 0.004 0 0.006-0.002 0.050-0.016 0.096-0.034 0.146-0.050 0.010-0.002 0.016-0.004 0.022-0.008 18.856-6.13 35.324-17.678 47.632-33.414 0.002-0.002 0.004-0.006 0.006-0.008 13.81-17.654 21.11-38.836 21.11-61.254s-7.3-43.6-21.11-61.256zM839.76 655.732h-542.014c5.468 12.034 9.092 24.802 10.744 38.034h531.27v-38.034zM839.762 727.324h-531.272c-1.652 13.232-5.276 26-10.742 38.034h542.012v-38.034zM873.318 670.306v80.48l60.36-40.24-60.36-40.24zM176.41 772.070c-9.27 0-16.78-7.512-16.78-16.78s7.51-16.78 16.78-16.78c17.886 0 32.44-14.554 32.44-32.44s-14.554-32.44-32.44-32.44c-9.27 0-16.78-7.512-16.78-16.78 0-9.266 7.51-16.78 16.78-16.78 36.394 0 66 29.608 66 66s-29.608 66-66 66z" />
<glyph unicode="&#xe90a;" glyph-name="folder" d="M981.163 499.2h-59.563v106.974c0 25.702-20.924 46.626-46.626 46.626h-21.641v307.2h-682.667v-34.133h-51.2v-34.133h-51.2v-119.467h-21.641c-25.702 0-46.626-20.924-46.626-46.626v-745.591h0.102c-0.085-9.609 2.901-19.012 8.909-26.88 8.363-10.923 21.026-17.169 34.765-17.169h763.887c19.746 0 37.12 13.312 41.796 30.942l174.541 478.515v3.021c0 29.389-18.022 50.722-42.837 50.722zM874.974 618.667c6.895 0 12.493-5.598 12.493-12.493v-106.974h-34.133v119.467h21.641zM819.2 925.867v-426.667h-601.924c-3.977 0-7.799-0.666-11.503-1.673-0.307-0.085-0.666-0.051-0.973-0.137v428.476h614.4zM170.667 891.733v-436.651l-1.075-2.953-15.991-43.827v483.43h17.067zM102.4 857.6h17.067v-542.891l-17.067-46.78v589.67zM34.133 725.641c0 6.895 5.615 12.493 12.493 12.493h21.641v-562.227l-34.133-93.099v642.833zM816.947-22.767c-1.109-4.181-4.932-7.1-9.284-7.1h-763.887c-4.147 0-6.571 2.372-7.646 3.789-1.075 1.399-2.731 4.369-2.099 6.963l173.943 477.065c1.126 4.181 4.966 7.117 9.301 7.117h763.887c6.468 0 8.141-9.318 8.55-13.978l-172.766-473.856zM307.2 669.867h409.6c9.421 0 17.067 7.629 17.067 17.067s-7.646 17.067-17.067 17.067h-409.6c-9.421 0-17.067-7.629-17.067-17.067s7.646-17.067 17.067-17.067zM307.2 789.333h170.667c9.421 0 17.067 7.629 17.067 17.067s-7.646 17.067-17.067 17.067h-170.667c-9.421 0-17.067-7.629-17.067-17.067s7.646-17.067 17.067-17.067zM307.2 550.4h409.6c9.421 0 17.067 7.629 17.067 17.067s-7.646 17.067-17.067 17.067h-409.6c-9.421 0-17.067-7.629-17.067-17.067s7.646-17.067 17.067-17.067z" />
<glyph unicode="&#xe90b;" glyph-name="gear" d="M328.964 346.098c-61.672 0-111.844-50.174-111.844-111.844s50.174-111.844 111.844-111.844 111.844 50.174 111.844 111.844-50.172 111.844-111.844 111.844zM328.964 172.116c-34.262 0-62.136 27.874-62.136 62.136s27.874 62.136 62.136 62.136 62.136-27.874 62.136-62.136-27.874-62.136-62.136-62.136zM602.362 313.786h-64.526c-1.304 3.462-2.712 6.892-4.228 10.32l45.842 46.084c9.656 9.706 9.644 25.394-0.030 35.084l-79.084 79.24c-9.664 9.684-25.332 9.736-35.062 0.122l-46.676-45.832c-3.462 1.544-5.718 2.97-10.69 4.29v64.554c0 13.728-10.536 24.854-24.262 24.854h-111.844c-13.728 0-25.446-11.128-25.446-24.854v-65.106c-2.486-1.2-5.722-2.43-8.608-3.69l-45.398 46.174c-4.66 4.684-10.844 7.71-17.452 7.71-0.008 0-0.012 0-0.020 0-6.598 0-12.93-3.008-17.592-7.68l-78.93-79.276c-9.658-9.678-9.686-25.434-0.062-35.146l45.986-46.466c-1.506-3.422-2.906-6.906-4.21-10.384h-64.5c-13.728 0-25.446-11.128-25.446-24.854v-111.844c0-13.728 11.718-24.854 25.446-24.854h65.106c1.2-3.050 2.43-6.018 3.69-8.902l-45.792-45.548c-4.686-4.66-7.32-10.994-7.328-17.602-0.006-6.606 2.62-12.944 7.298-17.612l79.084-79.236c4.66-4.652 10.976-7.568 17.558-7.568 0.028 0 0.058 0 0.086 0 6.614 0 12.944 2.988 17.592 7.692l44.964 45.96c2.848-1.236 6.040-2.294 8.526-3.48v-65.084c0-13.728 11.718-24.854 25.446-24.854h111.844c13.728 0 24.262 11.128 24.262 24.854v64.526c4.97 1.304 7.188 2.712 10.616 4.23l46.234-45.844c9.706-9.654 25.466-9.638 35.158 0.030l79.278 79.084c4.682 4.672 7.328 11.022 7.314 17.64s-2.654 12.954-7.352 17.61l-45.646 45.222c1.332 3.032 2.57 6.008 3.708 8.88h65.144c13.724 0 24.262 11.128 24.262 24.854v111.844c0.002 13.732-10.536 24.858-24.26 24.858zM519.768 201.942c-10.76 0-20.298-6.924-23.632-17.154-2.938-9.022-7.852-22.348-14.568-34.61-5.326-9.724-3.572-21.798 4.304-29.6l40.548-40.172-44.020-43.932-41.136 40.918c-7.814 7.772-19.806 9.47-29.47 4.176-11.664-6.39-22.976-10.882-34.962-14.138-10.826-2.94-18.636-12.768-18.636-23.984v-57.736h-62.136v57.736c0 10.76-6.628 20.298-16.856 23.632-13.596 4.43-25.090 9.278-34.464 14.414-9.736 5.332-21.748 3.566-29.546-4.33l-40.172-40.69-43.728 43.662 40.706 40.48c7.846 7.804 9.592 19.856 4.274 29.564-5.188 9.47-10.196 21.436-14.49 34.612-3.332 10.23-12.87 17.152-23.63 17.152h-58.326v62.136h58.328c11.22 0 21.046 7.514 23.984 18.34 3.308 12.182 7.774 23.196 14.060 34.666 5.284 9.646 3.602 21.62-4.144 29.436l-41.064 41.448 43.85 43.936 40.48-40.698c7.804-7.844 19.854-9.588 29.564-4.27 9.47 5.188 21.144 10.198 34.316 14.492 10.23 3.334 16.856 12.872 16.856 23.632v57.74h62.136v-57.736c0-11.22 7.81-21.046 18.636-23.984 11.796-3.204 22.958-7.72 34.814-14.214 9.636-5.28 21.668-3.606 29.484 4.118l41.45 40.922 44.138-44.208-40.91-41.136c-7.77-7.812-9.464-19.806-4.17-29.47 6.39-11.664 10.884-22.68 14.138-34.664 2.94-10.826 12.77-18.342 23.99-18.342h57.148v-62.138h-57.144zM981.302 650.918l-52.958 30.61c0.566 5.928 0.852 11.776 0.852 17.5 0 5.786-0.27 11.622-0.81 17.47l53.062 30.636c11.888 6.862 15.962 22.064 9.096 33.952l-55.922 96.86c-6.842 11.854-21.986 15.942-33.866 9.146l-54.038-30.744c-9.68 6.81-18.772 12.71-31.2 17.662v61.136c0 13.726-10.538 24.854-24.262 24.854h-111.844c-13.724 0-25.446-11.128-25.446-24.854v-61.744c-9.942-5.090-20.19-10.862-29.166-17.056l-52.734 30.67c-5.714 3.314-12.444 4.216-18.82 2.51-6.38-1.708-11.784-5.884-15.080-11.608l-55.748-96.86c-6.844-11.89-2.754-27.078 9.132-33.932l53.148-30.65c-0.524-5.806-0.786-11.634-0.786-17.45 0-5.772 0.276-11.61 0.822-17.476l-53.042-30.63c-11.888-6.862-15.958-22.064-9.096-33.952l55.928-96.86c3.306-5.724 8.754-9.894 15.142-11.592 6.376-1.696 13.188-0.78 18.896 2.546l52.264 30.626c8.97-6.186 19.2-11.952 29.142-17.036v-61.744c0-13.728 11.718-24.854 25.446-24.854h111.844c13.724 0 24.262 11.128 24.262 24.854v61.14c12.428 4.946 21.5 10.838 31.17 17.642l53.568-30.7c11.866-6.818 27.102-2.756 33.966 9.096l56.114 96.86c3.304 5.706 4.222 12.492 2.52 18.864-1.702 6.374-5.844 11.808-11.556 15.108zM903.69 566.436l-46.37 26.648c-9.116 5.24-20.552 4.174-28.542-2.664-13.11-11.222-29.214-20.248-46.006-26.106-9.98-3.482-16.96-12.896-16.96-23.468v-53.078h-62.136v53.078c0 10.172-5.902 19.316-15.352 23.088-17.552 6.998-33.558 16.406-45.342 26.49-8.030 6.872-19.466 7.914-28.594 2.59l-45.324-26.43-31.004 53.726 45.998 26.554c9.11 5.262 13.926 15.69 12.018 26.034-1.626 8.804-2.446 17.596-2.446 26.134 0 8.748 0.806 17.54 2.392 26.134 1.912 10.352-2.908 20.784-12.024 26.042l-46.082 26.574 30.934 53.728 45.66-26.484c9.134-5.294 20.612-4.246 28.632 2.614 11.782 10.084 27.638 19.49 45.188 26.488 9.45 3.768 15.352 12.914 15.352 23.088v53.076h62.136v-53.078c0-10.57 6.982-19.986 16.96-23.468 16.792-5.858 32.746-14.886 45.856-26.108 7.978-6.824 19.46-7.904 28.578-2.69l46.712 26.702 31.136-53.896-45.988-26.554c-9.112-5.262-13.922-15.69-12.010-26.036 1.61-8.734 2.43-17.528 2.43-26.134 0-8.328-0.842-17.122-2.506-26.134-1.908-10.342 2.898-20.766 12.002-26.030l45.91-26.536-31.208-53.894zM736.576 779.806c-44.542 0-80.776-36.238-80.776-80.776 0-44.54 36.236-80.776 80.776-80.776s80.776 36.238 80.776 80.776c0 44.538-36.234 80.776-80.776 80.776zM736.576 667.962c-17.132 0-31.068 13.936-31.068 31.068s13.936 31.068 31.068 31.068c17.132 0 31.068-13.936 31.068-31.068 0-17.134-13.938-31.068-31.068-31.068z" />
<glyph unicode="&#xe90c;" glyph-name="internet" d="M894.905 108.632c80.225 90.412 129.095 209.267 129.095 339.368 0 135.362-52.895 258.525-138.982 350.173 0 0 0 0.018 0 0.018-0.071 0.106-0.177 0.141-0.23 0.23-89.671 95.32-215.305 156.337-355.046 161.121l-0.018 0.018-9.975 0.265c-2.578 0.088-5.155 0.177-7.751 0.177s-5.173-0.088-7.751-0.177l-9.94-0.265-0.018-0.018c-139.741-4.785-265.375-65.801-355.046-161.121-0.071-0.088-0.177-0.124-0.23-0.23 0 0 0-0.018-0.018-0.035-86.104-91.63-138.999-214.793-138.999-350.155 0-130.101 48.87-248.956 129.095-339.368 0.106-0.159 0.106-0.335 0.23-0.494 0.318-0.441 0.777-0.653 1.112-1.059 90.147-100.776 219.489-165.694 363.838-170.637l0.018-0.018 9.94-0.265c2.595-0.071 5.173-0.159 7.768-0.159s5.173 0.088 7.751 0.177l9.94 0.265 0.018 0.018c144.508 4.961 273.991 70.003 364.138 170.99 0.23 0.3 0.6 0.388 0.812 0.706 0.141 0.141 0.141 0.318 0.247 0.477zM35.752 430.345h211.915c1.995-74.84 16.614-147.562 42.637-215.693-50.211-18.167-98.216-42.531-143.201-72.934-66.154 78.689-107.326 178.988-111.351 288.627zM156.743 765.387c43.926-28.566 90.695-51.447 139.476-68.537-29.873-72.51-46.398-150.687-48.552-231.194h-211.915c4.22 114.882 49.205 219.489 120.991 299.732zM988.248 465.655h-211.915c-2.154 80.508-18.679 158.685-48.552 231.194 48.781 17.090 95.55 39.971 139.476 68.537 71.786-80.243 116.771-184.85 120.991-299.732zM494.345 695.826c-51.041 1.448-101.146 9.057-149.557 22.652 35.787 73.41 86.316 139.67 149.557 194.842v-217.494zM494.345 660.515v-194.86h-211.368c2.172 76.765 18.273 151.217 47.069 220.248 53.071-15.378 108.173-23.887 164.299-25.388zM529.655 660.515c56.126 1.501 111.228 9.993 164.317 25.388 28.796-69.032 44.897-143.484 47.069-220.248h-211.385v194.86zM529.655 695.826v217.494c63.241-55.172 113.77-121.432 149.557-194.842-48.41-13.594-98.516-21.204-149.557-22.652zM713.428 729.212c-33.916 71.062-80.984 135.804-139.264 191.294 103.389-13.524 196.414-60.275 268.058-129.201-40.678-25.812-83.827-46.574-128.794-62.093zM310.572 729.212c-44.968 15.519-88.117 36.281-128.777 62.093 71.627 68.926 164.67 115.677 268.058 129.201-58.297-55.49-105.366-120.232-139.282-191.294zM282.977 430.345h211.368v-177.223c-58.386-1.554-115.588-10.664-170.567-27.207-24.841 64.53-38.806 133.473-40.801 204.429zM494.345 217.812v-235.132c-67.69 59.057-120.761 130.807-156.849 210.397 50.617 14.919 103.194 23.217 156.849 24.735zM529.655-17.32v235.132c53.654-1.501 106.231-9.816 156.849-24.717-36.087-79.607-89.159-151.358-156.849-210.414zM529.655 253.122v177.223h211.368c-1.995-70.956-15.96-139.9-40.819-204.447-54.961 16.561-112.163 25.671-170.549 27.224zM776.333 430.345h211.915c-4.025-109.639-45.18-209.938-111.351-288.627-44.985 30.402-92.99 54.766-143.201 72.934 26.041 68.131 40.642 140.853 42.637 215.693zM171.096 115.271c41.772 27.754 86.246 50.070 132.714 66.754 34.339-76.977 83.633-147.121 146.026-206.53-108.597 14.212-205.789 65.059-278.74 139.776zM574.164-24.505c62.393 59.392 111.687 129.536 146.026 206.53 46.468-16.684 90.924-39 132.714-66.754-72.951-74.717-170.143-125.564-278.74-139.776z" />
<glyph unicode="&#xe90d;" d="M0 288.067l512 256 512-255.967-512-256-512 255.967z" />
<glyph unicode="&#xe90e;" d="M0 448.018l512 255.967 512-256-512-255.934-512 255.967z" />
<glyph unicode="&#xe90f;" d="M0 607.933l512 255.967 512-256-512-255.934-512 255.967z" />
<glyph unicode="&#xe910;" glyph-name="layers" d="M844.069 551.056l179.931 102.804-511.991 290.767-512.009-290.767 179.931-102.804-179.931-102.171 179.931-102.804-179.931-102.171 512.009-292.518 511.991 292.518-179.931 102.171 179.931 102.804-179.931 102.171zM512.009 901.768l436.69-248.001-436.69-249.511-436.709 249.511 436.709 248.001zM217.553 529.571l294.456-168.229 294.456 168.229 142.234-80.779-436.69-249.511-436.709 249.511 142.253 80.779zM948.7 243.817l-436.69-249.511-436.709 249.511 142.253 80.779 294.456-168.229 294.456 168.229 142.234-80.779z" />
<glyph unicode="&#xe911;" glyph-name="network" d="M912.291 960c-61.608 0-111.709-50.102-111.709-111.709 0-19.27 4.897-37.404 13.517-53.248l-182.998-182.998c-25.228 19.642-56.804 31.446-91.173 31.446s-65.946-11.804-91.192-31.427l-142.783 142.783c6.554 11.078 10.557 23.813 10.557 37.59 0 41.072-33.401 74.473-74.473 74.473s-74.473-33.401-74.473-74.473 33.401-74.473 74.473-74.473c13.777 0 26.512 4.003 37.59 10.557l142.783-142.783c-19.624-25.246-31.427-56.823-31.427-91.192s11.804-65.946 31.427-91.173l-235.781-235.799c-19.847 18.004-46.080 29.082-74.92 29.082-61.608 0-111.709-50.102-111.709-111.709s50.102-111.709 111.709-111.709 111.709 50.102 111.709 111.709c0 19.27-4.897 37.404-13.517 53.248l238.853 238.853c20.592-16.012 45.428-26.736 72.574-30.143v-189.161c-52.745-8.899-93.091-54.775-93.091-110.033 0-61.608 50.102-111.709 111.709-111.709s111.709 50.102 111.709 111.709c0 55.24-40.346 101.115-93.091 110.033v189.161c27.145 3.407 51.982 14.131 72.574 30.143l142.783-142.783c-6.572-11.096-10.575-23.831-10.575-37.609 0-41.072 33.401-74.473 74.473-74.473s74.473 33.401 74.473 74.473-33.401 74.473-74.473 74.473c-13.777 0-26.512-4.003-37.59-10.557l-142.783 142.783c19.624 25.246 31.427 56.823 31.427 91.192s-11.804 65.946-31.427 91.173l179.945 179.945c19.828-18.004 46.061-29.082 74.901-29.082 61.608 0 111.709 50.102 111.709 111.709s-50.102 111.709-111.709 111.709zM204.8 792.436c0 20.536 16.701 37.236 37.236 37.236s37.236-16.701 37.236-37.236-16.701-37.236-37.236-37.236-37.236 16.701-37.236 37.236zM111.709 10.473c-41.072 0-74.473 33.401-74.473 74.473s33.401 74.473 74.473 74.473 74.473-33.401 74.473-74.473-33.401-74.473-74.473-74.473zM614.4 47.709c0-41.072-33.401-74.473-74.473-74.473s-74.473 33.401-74.473 74.473 33.401 74.473 74.473 74.473 74.473-33.401 74.473-74.473zM539.927 382.836c-61.608 0-111.709 50.102-111.709 111.709s50.102 111.709 111.709 111.709 111.709-50.102 111.709-111.709-50.102-111.709-111.709-111.709zM875.055 196.655c0-20.536-16.701-37.236-37.236-37.236s-37.236 16.701-37.236 37.236 16.701 37.236 37.236 37.236 37.236-16.701 37.236-37.236zM912.291 773.818c-41.072 0-74.473 33.401-74.473 74.473s33.401 74.473 74.473 74.473 74.473-33.401 74.473-74.473-33.401-74.473-74.473-74.473z" />
<glyph unicode="&#xe912;" glyph-name="social-media" d="M821.023 556.869l202.977 148.85-288.644 173.531-205.315-136.876-205.317 136.874-324.725-171.811 205.617-158.4-171.254-157.733 168.376-98.295v-68.362c0-5.154 3.437-10.309 8.591-13.746l286.641-187.16c1.432-2.056 3.27-3.823 5.44-5.269 3.437-1.717 5.154-1.717 8.591-1.717 2.094 0 3.55 0.006 5.144 1.172 1.411 0.632 2.628 1.446 3.445 2.263l292.081 188.994c5.154 1.717 8.591 8.591 8.591 13.746v81.676l168.376 107.315-168.618 144.948zM511.395 398.32l-244.536 150.797 261.92 152.786 229.135-144.717-246.519-158.867zM680.375 255.57l-139.168 120.268 249.127 159.785 140.885-121.987-250.844-158.066zM735.356 838.013l226.792-135.731-167.793-122.489-0.584 0.501-4.397-2.833-228.439 143.201 0.89 0.519-0.86 0.572 174.39 116.259zM321.288 838.013l175.248-116.833-262.872-151.194-171.811 130.578 259.435 137.448zM235.383 528.751l247.343-151.816-135.664-126.519-118.55 68.724c-0.902 0.602-1.868 1.059-2.859 1.45l-132.874 77.585 142.605 130.576zM237.101 272.753l103.087-60.135c1.293-0.968 2.646-1.695 4.025-2.201l8.003-4.671 52.021 48.681 90.584 83.615v-273.181l-257.718 168.376v39.515zM687.247 217.772l99.65 63.57v-49.826l-257.718-166.657v274.9l137.45-120.268c1.834-1.834 4.109-3.004 6.582-3.61l3.727-3.262 5.217 3.324c1.748 0.405 3.469 1.017 5.092 1.828z" />
<glyph unicode="&#xe913;" glyph-name="trophy" d="M717.233 838.564c-9.952 1.45-19.174-5.418-20.63-15.354-10.85-74.018-32.124-141.571-61.518-195.361-9.332-17.074-19.406-32.528-29.94-45.926-6.206-7.894-4.84-19.326 3.058-25.534 3.332-2.62 7.294-3.89 11.226-3.89 5.386 0 10.718 2.384 14.308 6.946 11.776 14.976 22.968 32.124 33.262 50.962 31.44 57.53 54.118 129.291 65.59 207.525 1.454 9.938-5.418 19.174-15.356 20.632zM739.309 881.2c0-10.043-8.141-18.184-18.184-18.184s-18.184 8.141-18.184 18.184c0 10.043 8.141 18.184 18.184 18.184s18.184-8.141 18.184-18.184zM894.233 857.968c-21.168 25.18-52.178 39.622-85.076 39.622h-8.17c0.688 14.63 1.054 29.376 1.054 44.226 0 10.042-8.142 18.184-18.184 18.184h-543.722c-10.042 0-18.184-8.142-18.184-18.184 0-14.848 0.368-29.596 1.054-44.226h-8.188c-32.884 0-63.882-14.438-85.048-39.614-21.17-25.184-30.072-58.212-24.418-90.624l24.496-140.359c9.31-53.312 55.358-92.008 109.49-92.008h93.466c34.38-47.962 74.194-80.974 116.982-97.206v-130.521h-78.442c-10.042 0-18.184-8.142-18.184-18.184v-100.918h-45.878c-10.042 0-18.184-8.142-18.184-18.184v-215.789c0-10.042 8.142-18.184 18.184-18.184h409.426c10.042 0 18.184 8.142 18.184 18.184v215.789c0 10.042-8.142 18.184-18.184 18.184h-45.878v100.918c0 10.042-8.142 18.184-18.184 18.184h-78.458v130.513c42.794 16.228 82.614 49.242 117 97.21h93.474c54.118 0 100.156 38.694 109.464 92.004l24.522 140.361c5.654 32.414-3.246 65.442-24.414 90.622zM791.187 800.611h17.966c5.456 0 8.89-2.734 10.882-5.114 1.92-2.266 4.016-6.098 3.088-11.444l-24.538-140.401c-1.176-6.762-7.028-11.67-13.92-11.67h-40.178c21.372 50.796 37.132 107.856 46.7 168.629zM279.505 631.981h-40.17c-6.906 0-12.768 4.908-13.944 11.684l-24.492 140.363c-0.938 5.378 1.166 9.24 3.104 11.538 2.818 3.346 6.46 5.044 10.818 5.044h17.984c9.57-60.774 25.328-117.834 46.7-168.629zM239.337 571.356v0c-36.422 0-67.402 26.030-73.666 61.892l-24.492 140.357c-3.802 21.804 2.184 44.026 16.428 60.968 14.24 16.936 35.090 26.648 57.21 26.648h10.618c0.706-8.132 1.518-16.214 2.436-24.244h-13.050c-20.444 0-32.984-11.272-38.636-17.984-5.666-6.724-14.644-21.024-11.112-41.222l24.486-140.343c4.206-24.232 25.14-41.816 49.774-41.816h56.986c2.444-4.822 4.93-9.596 7.484-14.274 1.848-3.382 3.724-6.704 5.616-9.984h-70.082zM698.527 151.795v-179.421h-373.059v179.421h373.059zM634.466 270.895v-82.734h-244.937v82.734h244.937zM486.156 307.265v120.908c8.536-1.302 17.154-1.998 25.844-1.998 8.682 0 17.294 0.696 25.824 1.996v-120.906h-51.668zM688.273 598.779c-48.012-87.854-110.614-136.237-176.275-136.237s-128.265 48.384-176.279 136.237c-47.574 87.054-74.776 201.817-77.22 324.851h506.994c-2.442-123.032-29.646-237.797-77.22-324.851zM882.823 773.611l-24.52-140.359c-6.262-35.864-37.232-61.894-73.638-61.894h-70.092c1.892 3.28 3.768 6.6 5.616 9.984 2.556 4.678 5.040 9.45 7.484 14.274h56.994c24.62 0 45.544 17.586 49.748 41.796l24.542 140.407c2.56 14.778-1.512 29.79-11.104 41.106-5.644 6.742-18.176 18.054-38.698 18.054h-13.032c0.918 8.030 1.732 16.114 2.436 24.244h10.598c22.134 0 42.998-9.716 57.24-26.656 14.24-16.942 20.228-39.16 16.426-60.956z" />
</font>
</defs>
</svg>
